# Blender v2.82 (sub 7) OBJ File: 'keyboard.blend'
# www.blender.org
o Keyboard
v 0.239739 0.003988 -0.093072
v 0.244123 0.003988 -0.088845
v -0.244123 0.003988 -0.088845
v -0.239739 0.003988 -0.093072
v 0.244123 0.003988 0.088845
v 0.239739 0.003988 0.093072
v -0.239739 0.003988 0.093072
v -0.244123 0.003988 0.088845
v 0.239739 0.018583 0.093072
v 0.244123 0.018583 0.088845
v 0.244123 0.018583 -0.088845
v 0.239739 0.018583 -0.093072
v -0.239739 0.018583 -0.093072
v -0.244123 0.018583 -0.088845
v -0.244123 0.018583 0.088845
v -0.239739 0.018583 0.093072
v 0.244047 0.013990 0.097044
v 0.244047 0.008581 0.097044
v 0.248522 0.008678 0.092900
v 0.248522 0.013894 0.092900
v -0.244047 0.008581 0.097044
v -0.244047 0.013990 0.097044
v -0.248522 0.013894 0.092901
v -0.248522 0.008678 0.092901
v -0.244047 0.013990 -0.097044
v -0.244047 0.008581 -0.097044
v -0.248522 0.008678 -0.092900
v -0.248522 0.013894 -0.092900
v 0.244047 0.008581 -0.097044
v 0.244047 0.013990 -0.097044
v 0.248522 0.013894 -0.092901
v 0.248522 0.008678 -0.092901
vt 0.008978 0.846103
vt 0.991021 0.846103
vt 0.991218 0.862248
vt 0.008782 0.862248
vt 0.991218 0.913547
vt 0.008782 0.913547
vt 0.008978 0.897402
vt 0.991021 0.897402
vt 0.008782 0.881258
vt 0.991218 0.881258
vt 0.991021 0.897402
vt 0.008978 0.897402
vt 0.610527 0.965185
vt 0.245722 0.965185
vt 0.246158 0.948701
vt 0.610092 0.948701
vt 0.000000 0.432659
vt 0.008979 0.423052
vt 0.991021 0.423052
vt 1.000000 0.432659
vt 1.000000 0.836496
vt 0.991021 0.846103
vt 0.008979 0.846103
vt 0.000000 0.836496
vt 0.008979 0.423051
vt 0.000000 0.413444
vt 0.000000 0.009607
vt 0.008979 0.000000
vt 0.991022 0.000000
vt 1.000000 0.009607
vt 1.000000 0.413444
vt 0.991021 0.423051
vt 0.991021 0.948701
vt 0.008978 0.948701
vt 0.008782 0.932557
vt 0.991218 0.932557
vt 0.610092 1.000000
vt 0.246158 1.000000
vt 0.245722 0.983516
vt 0.610527 0.983516
vt 0.991778 0.965185
vt 0.626972 0.965185
vt 0.627408 0.948701
vt 0.991342 0.948701
vt 0.013787 0.923052
vt -0.000000 0.915972
vt -0.000000 0.908996
vt 0.986213 0.923052
vt 1.000000 0.930131
vt 1.000000 0.937108
vt 0.986213 0.871753
vt 1.000000 0.878832
vt 1.000000 0.885809
vt 0.013787 0.871753
vt -0.000000 0.864673
vt -0.000000 0.857697
vt 1.000000 0.948701
vt 1.000000 0.959346
vt 0.237500 1.000000
vt 0.237500 0.989355
vt 0.618750 0.948701
vt 0.618750 0.959346
vt 0.626972 0.983516
vt 0.627408 1.000000
vt 0.618750 1.000000
vt 0.618750 0.989355
vt 0.991342 1.000000
vt 0.991778 0.983516
vt 1.000000 0.989355
vt 1.000000 1.000000
vt 0.237500 0.959346
vt 0.237500 0.948701
vt 0.618750 0.989355
vt 0.618750 1.000000
vt 0.618750 0.959346
vt 0.618750 0.948701
vn -0.0000 -0.6541 -0.7564
vn 0.0000 0.6541 0.7564
vn -0.0000 0.6541 -0.7564
vn -0.7294 0.6841 0.0000
vn 0.0000 1.0000 0.0000
vn 0.0000 -1.0000 0.0000
vn 0.0000 -0.6541 0.7564
vn -0.7294 -0.6841 0.0000
vn 0.7294 0.6841 -0.0000
vn 0.6795 0.0000 0.7337
vn -0.6795 0.0000 0.7337
vn -0.6795 0.0000 -0.7337
vn 0.6795 0.0000 -0.7337
vn 0.4287 0.7865 0.4445
vn -0.4287 -0.7865 0.4445
vn -0.4287 0.7865 -0.4445
vn 0.4287 -0.7865 -0.4445
vn 0.4287 -0.7865 0.4445
vn -0.4287 0.7865 0.4445
vn -0.4287 -0.7865 -0.4445
vn 0.4287 0.7865 -0.4445
vn 1.0000 0.0000 -0.0000
vn -1.0000 0.0000 0.0000
vn -0.0000 0.0000 -1.0000
vn 0.0000 0.0000 1.0000
vn 0.7294 -0.6841 -0.0000
s 1
f 1/1/1 4/2/1 26/3/1 29/4/1
f 22/5/2 17/6/2 9/7/2 16/8/2
f 30/9/3 25/10/3 13/11/3 12/12/3
f 28/13/4 23/14/4 15/15/4 14/16/4
f 11/17/5 12/18/5 13/19/5 14/20/5 15/21/5 16/22/5 9/23/5 10/24/5
f 1/25/6 2/26/6 5/27/6 6/28/6 7/29/6 8/30/6 3/31/6 4/32/6
f 7/33/7 6/34/7 18/35/7 21/36/7
f 3/37/8 8/38/8 24/39/8 27/40/8
f 20/41/9 31/42/9 11/43/9 10/44/9
f 17/6/10 18/45/10 19/46/10 20/47/10
f 21/36/11 22/48/11 23/49/11 24/50/11
f 25/10/12 26/51/12 27/52/12 28/53/12
f 29/4/13 30/54/13 31/55/13 32/56/13
f 20/41/14 10/44/14 9/57/14 17/58/14
f 24/39/15 8/38/15 7/59/15 21/60/15
f 28/13/16 14/16/16 13/61/16 25/62/16
f 32/63/17 2/64/17 1/65/17 29/66/17
f 5/67/18 19/68/18 18/69/18 6/70/18
f 15/15/19 23/14/19 22/71/19 16/72/19
f 3/37/20 27/40/20 26/73/20 4/74/20
f 11/43/21 31/42/21 30/75/21 12/76/21
f 31/42/22 20/41/22 19/68/22 32/63/22
f 23/14/23 28/13/23 27/40/23 24/39/23
f 25/10/24 30/9/24 29/4/24 26/3/24
f 17/6/25 22/5/25 21/36/25 18/35/25
f 5/67/26 2/64/26 32/63/26 19/68/26
